<?xml version="1.0" standalone="no"?>
<!DOCTYPE svg PUBLIC "-//W3C//DTD SVG 20010904//EN"
 "http://www.w3.org/TR/2001/REC-SVG-20010904/DTD/svg10.dtd">
<svg version="1.0" xmlns="http://www.w3.org/2000/svg"
 width="16.000000pt" height="16.000000pt" viewBox="0 0 16.000000 16.000000"
 preserveAspectRatio="xMidYMid meet">
<metadata>
Created by potrace 1.11, written by Peter Selinger 2001-2013
</metadata>
<g transform="translate(0.000000,16.000000) scale(0.003810,-0.003810)"
fill="#000000" stroke="none">
<path d="M3969 4196 c-5 -5 -1606 -21 -1929 -19 -776 4 -1932 0 -1968 -6 -24
-5 -51 -16 -60 -25 -15 -15 -15 -19 -2 -39 13 -18 15 -88 17 -422 1 -220 5
-478 9 -574 3 -99 2 -247 -4 -345 -14 -217 -17 -693 -7 -1231 4 -231 7 -460 6
-509 l-1 -90 54 -55 54 -56 8 -323 7 -323 27 -19 c26 -19 46 -20 336 -20 l307
0 69 -66 68 -66 213 2 c432 5 412 5 987 1 403 -2 1536 9 1805 17 l200 7 4 50
c3 28 3 82 1 120 -1 39 -3 126 -3 195 1 124 2 190 21 936 7 240 7 484 2 635
-6 152 -5 297 1 385 6 93 6 204 -1 325 -5 101 -8 335 -6 519 3 184 0 353 -4
376 -6 25 -6 54 0 75 11 36 14 259 5 299 -3 14 -9 69 -12 123 -5 75 -9 97 -19
93 -7 -3 -16 -1 -19 4 -4 6 -17 10 -30 10 -13 0 -27 5 -30 10 -6 10 -97 15
-106 6z m-3529 -398 l5 -116 215 118 c206 114 268 138 284 111 4 -5 -58 -44
-136 -87 -79 -43 -155 -85 -170 -94 l-26 -16 179 -124 180 -125 -41 -3 c-37
-3 -53 5 -205 112 l-164 116 -60 -33 -61 -32 0 -82 0 -83 -30 0 -30 0 0 223
c0 123 3 227 7 231 4 4 16 6 28 4 18 -3 20 -12 25 -120z m1580 106 c68 -20
120 -69 120 -113 0 -26 -4 -31 -24 -31 -19 0 -27 8 -36 36 -10 29 -22 40 -57
56 -39 17 -62 20 -154 16 -90 -3 -112 -7 -136 -24 -16 -12 -28 -31 -28 -44 0
-40 41 -58 195 -83 164 -27 211 -44 236 -82 24 -37 21 -91 -6 -120 -68 -72
-321 -85 -433 -22 -41 23 -60 51 -72 105 -6 30 -5 32 22 32 26 0 31 -5 39 -37
7 -32 17 -42 56 -61 128 -64 375 -22 355 60 -9 34 -35 44 -200 73 -175 32
-222 51 -242 100 -28 65 16 123 110 146 56 13 200 10 255 -7z m621 -6 c84 -37
106 -123 45 -184 l-34 -34 29 -29 c27 -28 29 -34 29 -110 0 -80 0 -81 -25 -81
-24 0 -25 2 -25 64 0 54 -4 70 -24 93 l-24 28 -171 3 -171 4 0 -96 0 -96 -30
0 -30 0 0 223 c0 123 3 227 8 231 4 5 93 6 197 4 142 -3 199 -8 226 -20z m552
-203 c75 -123 137 -226 137 -229 0 -3 -13 -6 -29 -6 -25 0 -34 9 -71 70 l-42
70 -138 0 c-77 0 -150 -4 -163 -9 -14 -6 -41 -36 -62 -70 -33 -56 -39 -61 -71
-61 l-34 0 56 88 c31 48 98 151 147 230 69 108 96 142 111 142 16 0 51 -49
159 -225z m617 200 l0 -25 -205 0 -205 0 0 -75 0 -75 180 0 180 0 0 -25 0 -25
-180 0 -180 0 0 -85 0 -85 205 0 c198 0 205 -1 205 -20 0 -19 -7 -20 -235 -20
l-235 0 0 223 c0 123 3 227 7 230 3 4 109 7 235 7 l228 0 0 -25z m-2400 4 c71
-15 140 -64 168 -119 38 -76 25 -179 -31 -238 -109 -117 -419 -120 -529 -5
-50 53 -60 78 -60 148 0 107 55 173 177 211 50 16 207 18 275 3z m-940 -603
l95 -84 3 84 c2 65 6 84 17 84 11 0 15 -22 17 -102 l3 -101 64 101 c35 56 69
102 76 102 6 0 36 -39 65 -87 29 -49 60 -98 68 -110 13 -21 13 -23 -6 -23 -13
0 -28 12 -39 30 -17 29 -20 30 -90 30 -69 0 -73 -1 -90 -30 -13 -23 -24 -30
-49 -30 -26 0 -49 16 -125 85 l-94 84 -3 -84 c-2 -67 -6 -85 -17 -85 -12 0
-15 20 -15 110 0 83 3 110 13 110 7 0 55 -38 107 -84z m448 -4 c3 -78 4 -83
28 -92 14 -6 40 -10 59 -10 19 0 45 4 59 10 24 9 25 14 28 92 l3 83 155 0 155
0 3 -107 c3 -103 2 -108 -18 -108 -19 0 -20 6 -20 95 l0 95 -50 0 -50 0 0 -95
c0 -88 -1 -95 -20 -95 -19 0 -20 7 -20 95 l0 95 -50 0 -50 0 0 -64 c0 -35 -3
-72 -6 -81 -23 -60 -215 -60 -238 0 -3 9 -6 53 -6 97 0 70 2 79 18 76 14 -3
17 -16 20 -86z m542 -7 l0 -95 85 0 c69 0 85 -3 85 -15 0 -12 -18 -15 -105
-15 l-105 0 0 110 c0 103 1 110 20 110 19 0 20 -7 20 -95z m200 22 c0 -98 11
-112 88 -112 83 0 92 10 92 106 0 72 2 79 20 79 18 0 20 -7 20 -69 0 -62 2
-69 18 -64 12 3 22 -4 30 -21 8 -17 22 -27 47 -32 66 -12 144 11 119 36 -5 5
-45 16 -89 25 -57 10 -85 21 -97 36 -22 27 -22 31 1 60 17 22 27 24 99 24 85
0 122 -17 122 -57 0 -24 -27 -23 -40 2 -13 24 -67 35 -117 23 -64 -15 -48 -36
42 -54 99 -20 113 -26 120 -50 17 -52 -33 -84 -128 -82 -63 1 -103 20 -116 56
-9 22 -9 22 -21 -5 -7 -15 -26 -32 -43 -39 -46 -19 -135 -14 -166 9 -24 18
-26 25 -29 111 -2 76 0 91 13 91 12 0 15 -14 15 -73z m837 62 c45 -17 57 -57
28 -89 -14 -15 -14 -18 0 -30 9 -7 15 -29 15 -51 0 -32 -3 -39 -20 -39 -16 0
-20 7 -20 35 0 44 -23 55 -112 55 l-61 0 6 -45 c6 -43 6 -45 -19 -45 -24 0
-26 3 -20 31 3 17 6 67 6 110 l0 79 84 0 c47 0 97 -5 113 -11z m283 -4 c0 -12
-17 -15 -95 -15 l-95 0 0 -30 0 -30 85 0 c69 0 85 -3 85 -15 0 -12 -16 -15
-85 -15 l-85 0 0 -35 0 -35 95 0 c78 0 95 -3 95 -15 0 -12 -19 -15 -115 -15
l-115 0 0 43 c0 23 3 72 7 110 l6 67 108 0 c90 0 109 -3 109 -15z m219 -9 c24
-22 28 -56 7 -56 -7 0 -20 9 -27 21 -17 25 -90 36 -132 20 -46 -18 -26 -35 61
-52 117 -23 153 -63 96 -108 -40 -31 -163 -30 -198 2 -14 12 -26 31 -28 42 -4
27 28 32 35 6 6 -26 45 -41 101 -41 72 0 102 41 38 54 -137 26 -143 28 -158
51 -18 28 -6 60 29 75 38 17 153 7 176 -14z m253 14 c104 -29 118 -156 22
-196 -45 -19 -138 -18 -179 2 -46 22 -70 73 -55 119 13 40 27 53 77 71 46 16
86 17 135 4z m295 -1 c45 -17 57 -57 28 -89 -14 -15 -14 -18 0 -30 9 -7 15
-29 15 -51 0 -32 -3 -39 -20 -39 -17 0 -20 7 -20 39 0 46 -11 51 -108 51 l-63
0 7 -45 c6 -41 5 -45 -15 -45 -20 0 -21 5 -21 110 l0 110 84 0 c47 0 97 -5
113 -11z m283 -4 c0 -11 -12 -15 -50 -15 l-50 0 0 -95 c0 -88 -1 -95 -20 -95
-19 0 -20 7 -20 95 l0 95 -50 0 c-38 0 -50 4 -50 15 0 13 20 15 120 15 100 0
120 -2 120 -15z m-1526 -406 c367 -74 764 -354 998 -703 138 -207 213 -415
239 -665 15 -145 7 -458 -16 -611 -20 -132 -60 -299 -75 -314 -18 -18 -349
-12 -460 8 -178 31 -321 94 -390 171 l-25 28 45 -30 c71 -48 142 -81 237 -110
81 -24 102 -27 268 -27 99 -1 201 3 226 7 l47 8 10 57 c40 212 48 526 18 707
-44 268 -155 549 -299 759 -69 101 -192 235 -259 283 l-45 32 37 -74 c21 -41
64 -105 97 -142 33 -37 71 -84 85 -103 38 -52 103 -159 78 -130 -100 119 -157
182 -175 194 l-21 14 13 -72 c32 -186 -7 -388 -109 -560 -45 -76 -152 -194
-220 -243 l-45 -32 -6 117 c-3 68 -12 136 -22 162 -28 80 -97 183 -169 255
-117 117 -244 183 -408 211 -134 23 -246 6 -372 -58 -76 -38 -194 -154 -230
-226 -15 -30 -30 -52 -33 -49 -14 15 -45 163 -50 244 -9 140 23 298 86 421 12
23 19 42 16 42 -16 0 -97 -64 -161 -127 -146 -143 -254 -319 -295 -483 -18
-72 -21 -103 -16 -215 5 -138 24 -229 73 -352 75 -190 185 -316 350 -401 211
-108 405 -149 565 -120 110 21 186 50 264 103 42 28 81 45 112 50 26 4 73 15
105 25 l58 18 -22 -40 c-73 -130 -283 -275 -468 -322 -91 -24 -241 -31 -341
-17 -103 15 -274 71 -354 116 -183 103 -375 330 -458 544 -51 132 -68 217 -74
361 -21 546 302 1003 862 1223 242 94 480 116 729 66z m-233 -996 c46 -23 110
-64 141 -90 77 -64 164 -175 190 -243 24 -62 35 -205 21 -259 -8 -30 -16 -37
-59 -52 -28 -9 -69 -20 -92 -24 l-42 -7 23 49 c18 39 22 66 22 143 0 86 -3
101 -30 155 -37 74 -152 192 -218 224 -37 18 -57 22 -88 17 -79 -13 -302 -145
-297 -175 2 -10 29 -24 71 -38 129 -42 202 -117 202 -209 0 -41 -5 -58 -24
-78 -42 -45 -71 -48 -140 -16 -81 39 -165 97 -228 159 -42 42 -53 60 -59 96
-13 93 28 185 123 276 99 95 165 120 304 116 91 -2 102 -5 180 -44z m-744
-368 c53 -210 213 -414 408 -519 47 -26 48 -27 15 -21 -106 21 -240 96 -316
178 -95 103 -144 226 -144 363 0 87 12 146 18 89 2 -16 10 -57 19 -90z m235
-1151 c15 -8 29 -18 32 -23 11 -17 -25 -21 -47 -6 -28 20 -119 19 -157 0 -59
-31 -47 -108 20 -132 40 -14 105 -9 136 12 13 9 26 10 35 4 12 -8 11 -12 -6
-24 -21 -17 -79 -35 -110 -35 -39 0 -98 22 -121 45 -35 36 -34 102 4 138 47
46 147 55 214 21z m1270 20 c43 -7 78 -36 78 -64 0 -28 -25 -25 -38 5 -11 23
-17 25 -74 25 -35 0 -69 -4 -77 -9 -24 -16 4 -38 57 -46 82 -11 121 -25 133
-47 33 -62 -68 -107 -173 -78 -44 13 -68 34 -68 61 0 25 27 25 35 -1 14 -46
170 -50 170 -5 0 17 -12 22 -82 36 -91 18 -113 30 -113 64 0 47 68 73 152 59z
m-1805 -89 l58 -86 23 28 c12 15 39 54 60 85 22 34 44 58 55 58 15 0 17 -12
17 -110 0 -91 -3 -110 -15 -110 -12 0 -15 16 -15 82 l0 82 -55 -79 c-31 -44
-60 -81 -65 -83 -5 -2 -33 31 -62 73 l-53 77 -5 -74 c-4 -56 -8 -73 -20 -73
-12 0 -16 20 -18 108 -3 101 -2 107 17 107 14 0 38 -26 78 -85z m271 -22 c-2
-88 -6 -108 -18 -108 -12 0 -16 20 -18 108 -3 102 -2 107 18 107 20 0 21 -5
18 -107z m530 91 c25 -17 29 -57 8 -76 -11 -11 -11 -16 1 -35 18 -28 14 -88
-7 -88 -10 0 -17 13 -20 40 l-5 40 -82 3 -83 3 0 -46 c0 -33 -4 -45 -15 -45
-12 0 -15 19 -15 110 l0 110 98 0 c72 0 103 -4 120 -16z m265 5 c49 -26 67
-51 67 -96 0 -33 -6 -50 -24 -68 -66 -66 -231 -52 -265 22 -26 57 -4 114 53
139 38 16 139 18 169 3z m203 -68 l89 -80 3 80 c3 71 5 79 23 79 19 0 20 -6
17 -107 -2 -66 -7 -108 -14 -110 -6 -2 -53 34 -105 81 l-94 84 -5 -81 c-4 -64
-8 -82 -20 -82 -12 0 -16 20 -18 108 -2 100 -1 107 16 107 11 0 59 -36 108
-79z m374 64 c0 -12 -17 -15 -95 -15 l-95 0 0 -30 0 -30 85 0 c69 0 85 -3 85
-15 0 -12 -16 -15 -85 -15 l-85 0 0 -30 0 -30 95 0 c88 0 95 -1 95 -20 0 -19
-7 -20 -110 -20 l-110 0 0 110 0 110 110 0 c91 0 110 -3 110 -15z m300 -82 l0
-98 63 97 c34 54 69 98 77 98 13 0 140 -193 140 -213 0 -20 -33 -3 -51 28 -21
35 -22 35 -90 35 -68 0 -69 -1 -91 -35 -17 -26 -30 -35 -50 -35 -27 0 -28 1
-28 58 0 31 -3 81 -6 110 -6 48 -5 52 15 52 20 0 21 -5 21 -97z"/>
<path d="M2270 3785 l0 -88 153 5 c119 4 162 9 191 23 64 30 70 92 12 123 -24
13 -66 17 -193 20 l-163 4 0 -87z"/>
<path d="M2971 3749 c-35 -55 -61 -102 -59 -105 3 -2 60 -3 127 -2 l121 3 -61
100 c-34 55 -62 101 -63 102 -1 1 -30 -43 -65 -98z"/>
<path d="M1180 3857 c-118 -27 -165 -75 -165 -170 0 -80 26 -119 104 -156 48
-22 70 -26 151 -26 115 0 182 20 230 70 28 28 34 44 38 89 2 30 2 66 -2 79 -9
37 -64 85 -115 102 -65 21 -176 27 -241 12z"/>
<path d="M721 3296 c-12 -18 -21 -36 -21 -40 0 -3 20 -6 45 -6 25 0 45 2 45 4
0 7 -41 76 -45 76 -2 0 -13 -15 -24 -34z"/>
<path d="M2358 3343 c-23 -4 -28 -9 -28 -34 0 -29 0 -29 59 -29 33 0 71 4 85
10 25 9 35 33 18 44 -13 8 -105 14 -134 9z"/>
<path d="M3146 3339 c-72 -12 -98 -75 -51 -119 36 -34 127 -39 173 -11 27 18
32 26 32 61 0 31 -5 42 -22 51 -34 18 -88 26 -132 18z"/>
<path d="M3387 3343 c-4 -3 -7 -20 -7 -36 l0 -29 80 4 c77 3 99 12 100 41 0
21 -154 40 -173 20z"/>
<path d="M1640 400 l0 -30 73 0 c80 0 101 8 95 36 -3 16 -14 19 -86 22 l-82 3
0 -31z"/>
<path d="M1943 420 c-54 -22 -65 -93 -19 -124 33 -21 105 -28 146 -13 71 25
80 106 15 133 -38 15 -108 18 -142 4z"/>
<path d="M3094 398 c-4 -7 -14 -23 -22 -35 -14 -23 -14 -23 37 -23 l50 0 -20
35 c-22 37 -33 43 -45 23z"/>
</g>
</svg>
